HIERARCHY
ROOT root     
{
	OFFSET 0.0000 0.0000 0.0000
	CHANNELS 6 Xposition Yposition Zposition Zrotation Yrotation Xrotation
	JOINT pelvis   
	{
		OFFSET 0.0000 0.0000 0.0000
		CHANNELS 3 Zrotation Yrotation Xrotation
		JOINT thorax   
		{
			OFFSET 0.0000 23.0750 -5.0000
			CHANNELS 3 Zrotation Yrotation Xrotation
			JOINT rclavicle
			{
				OFFSET 0.0000 28.0009 0.0000
				CHANNELS 3 Zrotation Yrotation Xrotation
				JOINT rhumerus 
				{
					OFFSET -18.5725 5.5939 0.0000
					CHANNELS 3 Zrotation Yrotation Xrotation
					JOINT rradius  
					{
						OFFSET -24.8459 0.0000 0.0000
						CHANNELS 3 Zrotation Yrotation Xrotation
						JOINT rhand    
						{
							OFFSET -24.5477 0.0000 0.0000
							CHANNELS 3 Zrotation Yrotation Xrotation
							End Site
							{
								OFFSET -8.1826 0.0000 0.0000
							}
						}
					}
				}
			}
			JOINT lclavicle
			{
				OFFSET 0.0000 28.0009 0.0000
				CHANNELS 3 Zrotation Yrotation Xrotation
				JOINT lhumerus 
				{
					OFFSET 18.5725 5.5939 0.0000
					CHANNELS 3 Zrotation Yrotation Xrotation
					JOINT lradius  
					{
						OFFSET 24.8459 0.0000 0.0000
						CHANNELS 3 Zrotation Yrotation Xrotation
						JOINT lhand    
						{
							OFFSET 24.5477 0.0000 0.0000
							CHANNELS 3 Zrotation Yrotation Xrotation
							End Site
							{
								OFFSET 8.1826 0.0000 0.0000
							}
						}
					}
				}
			}
			JOINT head     
			{
				OFFSET 0.0000 35.2030 0.0000
				CHANNELS 3 Zrotation Yrotation Xrotation
				End Site
				{
					OFFSET 0.0000 11.7343 0.0000
				}
			}
		}
		JOINT rfemur   
		{
			OFFSET -8.2817 0.0000 0.0000
			CHANNELS 3 Zrotation Yrotation Xrotation
			JOINT rtibia   
			{
				OFFSET 0.0000 -43.3627 0.0000
				CHANNELS 3 Zrotation Yrotation Xrotation
				JOINT rfoot    
				{
					OFFSET 0.0000 -38.2947 0.0000
					CHANNELS 3 Zrotation Yrotation Xrotation
					JOINT rtoes    
					{
						OFFSET 0.0000 0.0000 16.6054
						CHANNELS 3 Zrotation Yrotation Xrotation
						End Site
						{
							OFFSET 0.0000 0.0000 5.5351
						}
					}
				}
			}
		}
		JOINT lfemur   
		{
			OFFSET 8.2817 0.0000 0.0000
			CHANNELS 3 Zrotation Yrotation Xrotation
			JOINT ltibia   
			{
				OFFSET 0.0000 -43.3627 0.0000
				CHANNELS 3 Zrotation Yrotation Xrotation
				JOINT lfoot    
				{
					OFFSET 0.0000 -38.2947 0.0000
					CHANNELS 3 Zrotation Yrotation Xrotation
					JOINT ltoes    
					{
						OFFSET 0.0000 0.0000 16.6054
						CHANNELS 3 Zrotation Yrotation Xrotation
						End Site
						{
							OFFSET 0.0000 0.0000 5.5351
						}
					}
				}
			}
		}
	}
}
MOTION
Frames: 7
Frame Time: .0333333
-8.7061 79.632 -5.7181 12.2067 46.8556 37.1908 0 -0 0 1.35374 -6.49685 16.6247 14.9342 -11.8778 7.58794e-05 49.5673 -9.07238 9.16551 180 81.9185 180 -2.96295 3.22109 -0.0833012 -11.3108 13.6908 4.24131e-05 -52.9706 26.7541 15.9915 6.8364e-07 -69.2237 -9.90533e-07 -6.85878 5.90774 -0.3543 6.25443 -15.7927 -13.5097 5.53891 0.133186 -47.9228 -0 -0 48.0945 -5.52153e-06 -11.8906 -23.0007 -175.296 -4.90223e-07 -23.9359 -4.04145 7.99457 -53.1598 -0 -0 75.2148 -4.20585e-06 9.35367 -1.92683 -0.317301 8.92989e-07 -24.0139 
-8.3386 79.778 -5.4325 11.8058 45.8726 36.967 0 -0 0 1.23774 -5.87204 16.9158 14.6993 -11.6724 4.92858e-06 49.0595 -8.98044 9.38886 -180 81.4638 -180 -2.91329 3.17929 -0.0808999 -11.3941 13.8494 -3.9335e-05 -52.3837 27.0296 16.4318 -1.02397e-06 -70.0374 7.17482e-07 -6.74925 5.75835 -0.3398 6.15719 -15.8103 -13.6086 5.35006 0.57608 -47.4119 -0 -0 47.5377 7.62256e-05 -11.4239 -22.9484 -175.495 1.20527e-05 -23.6825 -3.91515 7.24525 -54.2677 -0 -0 74.307 -1.01674e-06 9.26735 -2.25568 -0.368 2.4997e-06 -24.0658 
-7.966 79.917 -5.1313 11.4082 44.8992 36.7542 0 -0 0 1.12132 -5.26025 17.1877 14.4983 -11.479 0.000102871 48.5543 -8.8678 9.58414 180 81.0264 180 -2.89743 3.11891 -0.0789011 -11.4842 14.0234 -4.66425e-05 -51.8137 27.2982 16.8328 7.53215e-07 -70.8258 -1.05935e-06 -6.66847 5.60306 -0.326695 6.06509 -15.8205 -13.7079 5.17725 1.0084 -46.8909 -0 -0 46.968 7.16185e-06 -10.9608 -22.9073 -175.689 -1.36112e-05 -23.4161 -3.81746 6.53908 -55.3844 -0 -0 73.3148 -1.07489e-06 9.13707 -2.55918 -0.411499 -1.51178e-06 -24.1779 
-7.5877 80.049 -4.813 11.0149 43.9413 36.553 0 -0 0 1.00586 -4.66979 17.4332 14.3391 -11.3023 -9.3154e-05 48.0461 -8.72639 9.75691 180 80.6033 180 -2.91257 3.04544 -0.0774009 -11.5734 14.2102 -3.96478e-06 -51.2769 27.5618 17.1872 0 -71.5828 0 -6.62673 5.45024 -0.3158 5.97873 -15.8243 -13.8078 5.01916 1.43155 -46.3582 -0 -0 46.3845 -2.60244e-05 -10.5099 -22.8787 -175.875 -7.14879e-06 -23.1382 -3.74977 5.872 -56.506 -0 -0 72.2331 2.04995e-07 8.98204 -2.81974 -0.445501 -7.59868e-07 -24.281 
-7.2034 80.172 -4.4757 10.6316 43.005 36.3674 0 -0 0 0.888978 -4.10466 17.6504 14.2271 -11.1448 1.5563e-05 47.5313 -8.55298 9.90892 -180 80.2051 -180 -2.95211 2.96543 -0.0764014 -11.6571 14.4016 -3.03563e-05 -50.7863 27.8231 17.4856 1.17054e-06 -72.2905 -1.60257e-06 -6.63056 5.31076 -0.307895 5.89901 -15.8196 -13.9052 4.87219 1.84611 -45.8143 -0 -0 45.7992 -3.81128e-05 -10.0758 -22.8633 -176.051 -8.59116e-06 -22.8477 -3.71897 5.24844 -57.625 -0 -0 71.0602 -5.55203e-06 8.819 -3.01872 -0.468099 -1.75605e-06 -24.3175 
-6.8126 80.286 -4.1197 10.257 42.1012 36.1943 0 -0 0 0.777644 -3.57797 17.8345 14.1604 -11.0055 4.32192e-05 47.0145 -8.34513 10.0414 180 79.826 180 -3.00721 2.8837 -0.0757002 -11.7282 14.6012 -7.49581e-06 -50.3584 28.075 17.726 0 -72.9359 0 -6.68293 5.18957 -0.3032 5.82164 -15.8017 -14.0038 4.73835 2.24723 -45.2659 -0 -0 45.2187 -6.05047e-05 -9.6578 -22.8591 -176.218 -1.09547e-05 -22.5358 -3.73074 4.66677 -58.7441 -0 -0 69.7986 4.08343e-06 8.66951 -3.13469 -0.477697 2.22115e-06 -24.2635 
-6.4145 80.391 -3.7439 9.89775 41.2303 36.0397 0 -0 0 0.66798 -3.09113 17.9859 14.1416 -10.8842 -4.24967e-05 46.5 -8.10802 10.1512 180 79.4755 180 -3.06492 2.80562 -0.0751014 -11.7864 14.8018 3.87075e-05 -49.9969 28.3253 17.9025 9.00699e-07 -73.5228 -1.2057e-06 -6.78067 5.09566 -0.302096 5.74844 -15.7731 -14.1019 4.6147 2.63053 -44.7135 -0 -0 44.6554 6.40871e-06 -9.25133 -22.865 -176.378 1.3602e-06 -22.2027 -3.80422 4.14103 -59.8605 -0 -0 68.4547 3.59018e-06 8.5451 -3.1529 -0.473508 6.30941e-07 -24.1292 
